<svg xmlns="http://www.w3.org/2000/svg" viewBox="0 0 720 720"><defs><style>.cls-1{fill:#f2f2f4;}.cls-2{fill:#e8e8e9;}.cls-3{fill:#efa3a3;}.cls-4{fill:#cdcdd1;}.cls-5,.cls-8{fill:#fff;}.cls-6{fill:#aeb2b8;}.cls-7{fill:none;}.cls-8{opacity:0.43;}</style></defs><title>Artboard 11</title><g id="Layer_6" data-name="Layer 6"><g id="Dial"><circle class="cls-1" cx="359.35" cy="359.35" r="315.11"/><path class="cls-2" d="M237.39,604.17A271.64,271.64,0,0,1,99.67,445.22C52.32,302,130.3,147,273.49,99.67S571.69,130.3,619,273.49a271.73,271.73,0,0,1-15.35,208.77l-83.37-41.94a179,179,0,0,0,10.11-137.53c-31.19-94.33-133.31-145.7-227.64-114.51S157.09,321.59,188.28,415.92A178.93,178.93,0,0,0,279,520.63Z"/><path class="cls-3" d="M603.83,482.33l-83.65-42.08a178.81,178.81,0,0,0,10.1-137.41l88.9-29.4A271.85,271.85,0,0,1,603.83,482.33Z"/><polygon class="cls-4" points="489.34 111.42 443.37 198.35 442.01 200.93 436.91 198.36 438.17 195.73 480.56 107 482.68 102.57 491.63 107.07 489.34 111.42"/><polygon class="cls-5" points="114.72 336.56 160.66 341.94 163.56 342.28 163.15 347.84 160.23 347.75 114 346.36 109.08 346.21 109.83 335.99 114.72 336.56"/><polygon class="cls-5" points="603.43 382.33 557.49 376.95 554.59 376.61 555 371.05 557.91 371.14 604.15 372.53 609.07 372.68 608.32 382.9 603.43 382.33"/><polygon class="cls-5" points="381.96 115.09 376.58 161.03 376.24 163.93 370.68 163.52 370.77 160.6 372.16 114.37 372.31 109.45 382.53 110.2 381.96 115.09"/><polygon class="cls-5" points="202.47 170.48 231.15 206.77 232.96 209.06 228.74 212.7 226.74 210.58 195.03 176.89 191.66 173.31 199.42 166.62 202.47 170.48"/><polygon class="cls-5" points="548.04 202.84 511.75 231.52 509.46 233.33 505.82 229.11 507.94 227.11 541.63 195.4 545.21 192.03 551.9 199.79 548.04 202.84"/><polygon class="cls-5" points="170.1 516.05 206.4 487.37 208.68 485.56 212.33 489.78 210.2 491.78 176.52 523.49 172.94 526.86 166.25 519.1 170.1 516.05"/><polygon class="cls-4" points="111.05 229.18 197.98 275.15 200.55 276.51 197.99 281.61 195.36 280.35 106.63 237.96 102.2 235.84 106.7 226.88 111.05 229.18"/><polygon class="cls-4" points="97.94 440.61 186.35 413.49 189.14 412.63 190.93 418.05 188.18 419.02 101.03 449.94 96.39 451.58 93.25 442.06 97.94 440.61"/><polygon class="cls-4" points="620.21 278.28 531.79 305.41 529.01 306.26 527.22 300.85 529.97 299.87 617.12 268.95 621.75 267.31 624.9 276.83 620.21 278.28"/><polygon class="cls-4" points="277.9 98.31 305.03 186.72 305.89 189.51 300.47 191.3 299.5 188.55 268.58 101.4 266.93 96.77 276.46 93.62 277.9 98.31"/><polygon class="cls-4" points="229.77 593.68 270.34 523.28 273.71 517.45 285.05 523.15 282.37 529.33 250.03 603.88 245.51 614.3 224.1 603.52 229.77 593.68"/><polygon class="cls-4" points="592.89 490.51 522.49 449.94 516.65 446.57 522.36 435.23 528.54 437.91 603.08 470.25 613.5 474.77 602.73 496.18 592.89 490.51"/><path class="cls-4" d="M472.16,700.51C284,762.71,80.4,660.27,18.2,472.16S58.44,80.4,246.55,18.2s391.76,40.24,454,228.35S660.27,638.31,472.16,700.51ZM274.31,102.14C132.48,149,55.25,302.57,102.14,444.4S302.57,663.46,444.4,616.56,663.46,416.13,616.56,274.31,416.13,55.25,274.31,102.14Z"/><path class="cls-6" d="M181.19,551.59l4.73-3.35c21.83-15.46,47.85-49.73,68.86-66.12,11-8.65,13.62-23.62,24.5-32.42q14.75-11.91,29.31-24,21.21-17.62,42.12-35.56a31.95,31.95,0,0,0,40.53-35.28c-.05-.38-.15-.75-.22-1.13q3.6-3.71,7.08-7.55c4.51-4.94,8.85-10.06,13-15.41a153.11,153.11,0,0,0,11.62-16.92l4.09-7.09-7.07-7.82-7.47,3.35a152.76,152.76,0,0,0-18,9.83c-5.72,3.56-11.24,7.36-16.59,11.33q-3.87,2.82-7.61,5.78A32,32,0,0,0,327.9,364c.1.67.25,1.3.39,1.95q-20.18,18.26-40.11,36.77-14.42,13.46-28.67,27.09c-9.71,9.3-11,24.92-20.6,34.36C220,482.88,196.4,519.9,178.3,539.57l-3.93,4.27Z"/></g><path class="cls-7" d="M295.88,289.21l17.38,85.38L426,443.19l77.34,12.12,21.12,84.07-33.16-80.09-72.55-5.77L294.81,386l-16.66-83-57.42-78.93-89.55-10.53C88.87,279.91,75.57,364,102.14,444.4,149,586.22,302.57,663.46,444.4,616.56S663.46,416.13,616.56,274.31,416.13,55.25,274.31,102.14a269.3,269.3,0,0,0-119.14,79.29l74.44,17.5Z"/><path class="cls-8" d="M426,443.19l-112.72-68.6-17.38-85.38-66.27-90.28-74.44-17.5-8-1.88-12-101A359.11,359.11,0,0,0,63.32,156l45.88,55,22,2.58,89.55,10.53L278.15,303l16.66,83,123.92,67.54,72.55,5.77,33.16,80.09-21.12-84.07Z"/></g></svg>