<svg xmlns="http://www.w3.org/2000/svg" viewBox="0 0 720 720"><defs><style>.cls-1{fill:#e8e8e9;}.cls-2{fill:#cdcdd1;}.cls-3{fill:#e41c19;}.cls-4{fill:none;stroke:#0b0e1e;stroke-miterlimit:10;stroke-width:12px;}.cls-5{fill:#0b0e1e;}.cls-6{fill:#eaebef;}</style></defs><title>Artboard 8</title><g id="Layer_4" data-name="Layer 4"><g id="Dial"><circle class="cls-1" cx="359.71" cy="360" r="315.71"/><path class="cls-2" d="M166.69,554.52A272.14,272.14,0,0,1,85.68,360c0-151.1,122.93-274,274-274s274,122.93,274,274a272.23,272.23,0,0,1-80.26,193.77l-66.12-66.12A179.34,179.34,0,0,0,540.23,360c0-99.54-81-180.52-180.52-180.52S179.18,260.46,179.18,360a179.3,179.3,0,0,0,53.37,128.14Z"/><path class="cls-3" d="M553.58,553.88l-66.33-66.34A179.21,179.21,0,0,0,540.07,360h93.82A272.39,272.39,0,0,1,553.58,553.88Z"/><circle class="cls-4" cx="359.71" cy="360" r="17.28"/><path class="cls-5" d="M290.59,396.17a154.7,154.7,0,0,1,13.93-15.11c4.87-4.72,9.91-9.17,15.09-13.43A329.57,329.57,0,0,1,352,344.07q33.63-21.61,67.74-42.51t68.8-40.87c23.18-13.26,46.5-26.29,70.34-38.5l5.18-2.65,5.66,8.66-4.51,3.68c-20.76,16.92-42.05,33-63.49,48.89s-43.15,31.31-65,46.51-43.91,30.16-66.09,44.88a372.56,372.56,0,0,1-34,20.92q-8.8,4.77-18.07,8.87a153.32,153.32,0,0,1-19.22,7.18l-7.89,2.25-5.89-8.76Z"/><polygon class="cls-5" points="561.33 165.04 490.27 233.27 488.16 235.3 484.12 231.25 486.14 229.14 554.37 158.08 557.78 154.53 564.88 161.63 561.33 165.04"/><polygon class="cls-6" points="134.17 261.37 176.18 280.94 178.83 282.18 176.69 287.34 173.94 286.34 130.4 270.47 125.77 268.78 129.7 259.29 134.17 261.37"/><polygon class="cls-6" points="584.65 458.63 542.64 439.06 539.99 437.82 542.13 432.66 544.88 433.66 588.42 449.53 593.05 451.22 589.12 460.71 584.65 458.63"/><polygon class="cls-6" points="458.04 134.76 438.47 176.77 437.24 179.42 432.07 177.28 433.07 174.53 448.94 130.99 450.63 126.36 460.12 130.29 458.04 134.76"/><polygon class="cls-6" points="269.88 130.99 285.75 174.53 286.75 177.28 281.59 179.42 280.35 176.77 260.79 134.76 258.7 130.29 268.19 126.36 269.88 130.99"/><polygon class="cls-6" points="588.42 270.47 544.88 286.34 542.13 287.34 539.99 282.18 542.64 280.94 584.65 261.37 589.12 259.29 593.05 268.78 588.42 270.47"/><polygon class="cls-6" points="130.4 449.53 173.94 433.66 176.69 432.66 178.83 437.82 176.18 439.06 134.17 458.63 129.7 460.71 125.77 451.22 130.4 449.53"/><polygon class="cls-5" points="164.45 158.08 232.68 229.14 234.71 231.25 230.66 235.3 228.55 233.27 157.49 165.04 153.94 161.63 161.04 154.53 164.45 158.08"/><polygon class="cls-5" points="85.48 355.08 178.12 357.08 181.03 357.14 181.03 362.86 178.12 362.92 85.48 364.92 80.56 365.03 80.56 354.97 85.48 355.08"/><polygon class="cls-5" points="633.34 364.92 540.71 362.92 537.79 362.86 537.79 357.14 540.71 357.08 633.34 355.08 638.26 354.97 638.26 365.03 633.34 364.92"/><polygon class="cls-5" points="364.33 86.07 362.33 178.7 362.27 181.63 356.55 181.63 356.49 178.7 354.49 86.07 354.38 81.15 364.44 81.15 364.33 86.07"/><polygon class="cls-5" points="162.74 542.15 223.48 487.94 228.51 483.45 237.51 492.44 233.01 497.48 178.81 558.22 171.23 566.71 154.25 549.72 162.74 542.15"/><polygon class="cls-5" points="540.6 558.22 486.4 497.48 481.9 492.44 490.9 483.45 495.93 487.94 556.67 542.15 565.16 549.72 548.18 566.71 540.6 558.22"/><path class="cls-5" d="M359.71,720C161.2,720-.29,558.5-.29,360S161.2,0,359.71,0s360,161.5,360,360S558.21,720,359.71,720Zm0-631.42C210.05,88.58,88.29,210.34,88.29,360S210.05,631.42,359.71,631.42,631.12,509.66,631.12,360,509.36,88.58,359.71,88.58Z"/></g></g></svg>